<svg width="80" height="80" viewBox="0 0 80 80" fill="none" xmlns="http://www.w3.org/2000/svg">
  <!-- Background Circle -->
  <circle cx="40" cy="40" r="38" fill="#F3E5F5" stroke="#AB47BC" stroke-width="2"/>
  
  <!-- Palette -->
  <ellipse cx="38" cy="42" rx="18" ry="16" fill="#8D6E63" stroke="#5D4037" stroke-width="2"/>
  
  <!-- Thumb Hole -->
  <ellipse cx="32" cy="50" rx="4" ry="5" fill="#F3E5F5" stroke="#5D4037" stroke-width="1.5"/>
  
  <!-- Paint Colors -->
  <!-- Red -->
  <circle cx="35" cy="35" r="3.5" fill="#FF5252"/>
  <circle cx="35" cy="35" r="3.5" stroke="#C62828" stroke-width="1"/>
  
  <!-- Yellow -->
  <circle cx="43" cy="33" r="3.5" fill="#FFD740"/>
  <circle cx="43" cy="33" r="3.5" stroke="#F9A825" stroke-width="1"/>
  
  <!-- Blue -->
  <circle cx="48" cy="40" r="3.5" fill="#448AFF"/>
  <circle cx="48" cy="40" r="3.5" stroke="#1565C0" stroke-width="1"/>
  
  <!-- Green -->
  <circle cx="45" cy="47" r="3.5" fill="#69F0AE"/>
  <circle cx="45" cy="47" r="3.5" stroke="#00C853" stroke-width="1"/>
  
  <!-- Purple -->
  <circle cx="37" cy="43" r="3.5" fill="#E040FB"/>
  <circle cx="37" cy="43" r="3.5" stroke="#AA00FF" stroke-width="1"/>
  
  <!-- Paintbrush -->
  <g transform="translate(48, 22) rotate(45)">
    <!-- Brush Handle -->
    <rect x="0" y="0" width="3" height="20" rx="1.5" fill="#FFB74D" stroke="#F57C00" stroke-width="1"/>
    
    <!-- Brush Ferrule -->
    <rect x="-0.5" y="18" width="4" height="4" fill="#9E9E9E" stroke="#616161" stroke-width="0.5"/>
    
    <!-- Brush Bristles -->
    <path d="M -0.5 22 L 0.5 26 L 2 26 L 3.5 22 Z" fill="#7E57C2" stroke="#5E35B1" stroke-width="0.5"/>
  </g>
  
  <!-- Sparkles and Paint Drops -->
  <circle cx="26" cy="28" r="1.5" fill="#FF5252"/>
  <circle cx="56" cy="52" r="1.5" fill="#448AFF"/>
  <circle cx="24" cy="48" r="1.5" fill="#FFD740"/>
  
  <!-- Stars -->
  <path d="M58 30L58.5 31.5L60 32L58.5 32.5L58 34L57.5 32.5L56 32L57.5 31.5L58 30Z" fill="#E040FB"/>
  <path d="M28 54L28.5 55.5L30 56L28.5 56.5L28 58L27.5 56.5L26 56L27.5 55.5L28 54Z" fill="#69F0AE"/>
</svg>
