<svg width="80" height="80" viewBox="0 0 80 80" fill="none" xmlns="http://www.w3.org/2000/svg">
  <!-- Background Circle -->
  <circle cx="40" cy="40" r="38" fill="#FFE5E5" stroke="#FF6B9D" stroke-width="2"/>
  
  <!-- Book Base -->
  <path d="M25 28C25 26.3431 26.3431 25 28 25H52C53.6569 25 55 26.3431 55 28V52C55 53.6569 53.6569 55 52 55H28C26.3431 55 25 53.6569 25 52V28Z" fill="#FF6B9D"/>
  
  <!-- Book Pages -->
  <rect x="28" y="28" width="24" height="24" rx="1" fill="white"/>
  
  <!-- Book Spine -->
  <rect x="39" y="25" width="2" height="30" fill="#E91E63"/>
  
  <!-- Text Lines -->
  <line x1="31" y1="33" x2="37" y2="33" stroke="#FF6B9D" stroke-width="1.5" stroke-linecap="round"/>
  <line x1="31" y1="37" x2="48" y2="37" stroke="#FF6B9D" stroke-width="1.5" stroke-linecap="round"/>
  <line x1="31" y1="41" x2="45" y2="41" stroke="#FF6B9D" stroke-width="1.5" stroke-linecap="round"/>
  <line x1="31" y1="45" x2="48" y2="45" stroke="#FF6B9D" stroke-width="1.5" stroke-linecap="round"/>
  
  <!-- Star Decoration -->
  <path d="M48 32L49.5 35L52.5 35.5L50.25 37.7L50.8 40.7L48 39L45.2 40.7L45.75 37.7L43.5 35.5L46.5 35L48 32Z" fill="#FFD700"/>
  
  <!-- ABC Letters -->
  <text x="32" y="48" font-family="Arial, sans-serif" font-size="8" font-weight="bold" fill="#FF6B9D">ABC</text>
</svg>
